<!--
  - Copyright (C) 2025 The Android Open Source Project
  -
  - Licensed under the Apache License, Version 2.0 (the "License");
  - you may not use this file except in compliance with the License.
  - You may obtain a copy of the License at
  -
  -      http://www.apache.org/licenses/LICENSE-2.0
  -
  - Unless required by applicable law or agreed to in writing, software
  - distributed under the License is distributed on an "AS IS" BASIS,
  - WITHOUT WARRANTIES OR CONDITIONS OF ANY KIND, either express or implied.
  - See the License for the specific language governing permissions and
  - limitations under the License.
  -->
<svg xmlns="http://www.w3.org/2000/svg" width="108" height="108" viewBox="0 0 108 108">
    <!-- Left Flame -->
    <path fill="#000000" d="M39.3459,70.1201C41.2177,74.4147 41.3559,79.1638 36.7951,81.9004C32.2344,79.1639 29.6868,74.4146 32.1135,70.1201H34.2658C33.7236,71.0969 33.5987,72.016 33.6819,72.8057C33.8474,74.3777 34.887,76.1356 36.7297,77.6045C37.1663,77.1682 37.4656,76.7127 37.6701,76.2559C38.0353,75.4404 38.1689,74.4629 38.049,73.3242C37.9412,72.3002 37.6332,71.2116 37.1789,70.1201H39.3459Z" />
    <!-- Right Flame -->
    <path fill="#000000" d="M75.886,70.1201C78.3129,74.4146 75.7661,79.1639 71.2054,81.9004C66.6444,79.1638 66.7827,74.4148 68.6546,70.1201H70.8206C70.3665,71.2116 70.0593,72.3003 69.9514,73.3242C69.8316,74.463 69.9652,75.4403 70.3304,76.2559C70.5349,76.7125 70.8345,77.1674 71.2708,77.6035C73.1131,76.1347 74.1531,74.3775 74.3186,72.8057C74.4017,72.0161 74.2766,71.0969 73.7346,70.1201H75.886Z" />
    <!-- Main Rocket Body (with knockouts for boosters and lens) -->
    <path fill="#000000" d="M70.1201,65.7734C70.1201,67.8255 68.4524,69.4939 66.4004,69.4941H41.5996C39.5476,69.4939 37.8799,67.8255 37.8799,65.7734V46.6465H44.9727C44.9174,46.6998 44.862,46.7532 44.8076,46.8076C42.3696,49.2456 41,52.5522 41,56C41,59.4478 42.3696,62.7544 44.8076,65.1924C47.2456,67.6304 50.5522,69 54,69C57.4478,69 60.7544,67.6304 63.1924,65.1924C65.6304,62.7544 67,59.4478 67,56C67,52.5522 65.6304,49.2456 63.1924,46.8076C63.138,46.7532 63.0826,46.6998 63.0273,46.6465H70.1201V65.7734Z" />
    <!-- Left Booster Frame -->
    <path fill="#000000" d="M36.7949,37.2598C39.3877,37.2598 41.6622,38.9368 43.2227,41.4844C43.8293,42.4749 44.3257,43.5906 44.708,44.7871H42.082C41.8643,44.216 41.6177,43.6773 41.3418,43.1797C41.2661,43.0431 41.1882,42.9096 41.1084,42.7793C40.9474,42.5165 40.7818,42.2718 40.6123,42.0449C40.5275,41.9315 40.442,41.8224 40.3555,41.7178C40.0956,41.4038 39.8277,41.1299 39.5557,40.8936C39.465,40.8148 39.3738,40.7403 39.2822,40.6699C39.0077,40.4589 38.7298,40.2851 38.4512,40.1475C37.9863,39.9178 37.5197,39.7878 37.0654,39.751C36.9747,39.7436 36.8845,39.7402 36.7949,39.7402C36.705,39.7402 36.6144,39.7436 36.5234,39.751C35.1614,39.8618 33.6899,40.8081 32.4824,42.7793C31.2837,44.7364 30.542,47.4149 30.4502,50.2939C30.4441,50.4858 30.4407,50.6786 30.4404,50.8721L31.6777,70.04L31.6807,70.0801V70.1201H41.9102V70.0801L41.9131,70.04L41.9482,69.4941H44.4336L44.3877,70.2002L44.3857,70.1992C44.3656,70.8281 44.1104,71.4277 43.6641,71.874C43.199,72.339 42.5678,72.5996 41.9102,72.5996H31.6807C31.0231,72.5996 30.3918,72.3389 29.9268,71.874C29.4804,71.4276 29.2232,70.8282 29.2031,70.1992V70.2002L27.9629,50.9795L27.96,50.9404V50.9004C27.96,47.4305 28.801,44.0415 30.3672,41.4844C31.9276,38.9368 34.2021,37.2599 36.7949,37.2598Z" />
    <!-- Right Booster Frame -->
    <path fill="#000000" d="M71.2051,37.2598C73.7978,37.2599 76.0724,38.9369 77.6328,41.4844C79.199,44.0415 80.04,47.4305 80.04,50.9004V50.9404L80.0381,50.9795L78.7979,70.2002L78.7959,70.1992C78.7758,70.8281 78.5205,71.4277 78.0742,71.874C77.6092,72.339 76.9779,72.5995 76.3203,72.5996H66.0908C65.4333,72.5996 64.802,72.3388 64.3369,71.874C63.8905,71.4277 63.6334,70.8282 63.6133,70.1992V70.2002L63.5674,69.4941H66.0527L66.0879,70.04L66.0908,70.0801V70.1201H76.3203V70.0801L76.3232,70.04L77.5596,50.8594C77.5592,50.6662 77.556,50.4738 77.5498,50.2822C77.5,48.7491 77.266,47.2729 76.877,45.9326C76.6824,45.2626 76.4491,44.6265 76.1807,44.0342C76.0464,43.738 75.9033,43.4528 75.752,43.1797C75.6762,43.0431 75.5984,42.9096 75.5186,42.7793C74.9549,41.8591 74.3333,41.1626 73.6924,40.6699C73.5094,40.5292 73.325,40.4047 73.1396,40.2969C72.8616,40.1351 72.582,40.0094 72.3037,39.9189C72.0253,39.8284 71.7482,39.7731 71.4756,39.751C71.3849,39.7436 71.2947,39.7402 71.2051,39.7402C71.1152,39.7402 71.0246,39.7436 70.9336,39.751C69.5715,39.8617 68.1001,40.8081 66.8926,42.7793C66.5219,43.3845 66.1965,44.0593 65.9189,44.7871H63.292C63.6743,43.5906 64.1707,42.4749 64.7773,41.4844C66.3377,38.9369 68.6123,37.2599 71.2051,37.2598Z" />
    <!-- Mouth and Eyes Area -->
    <path fill="#000000" d="M54,29.2871C58.2752,29.2871 62.3754,30.9849 65.3984,34.0078C68.275,36.8844 69.9516,40.7371 70.1074,44.7871H60.5771C58.5994,43.6271 56.3321,43 54,43C51.6679,43 49.4006,43.6271 47.4229,44.7871H37.8926C38.0484,40.7371 39.725,36.8844 42.6016,34.0078C45.6246,30.9849 49.7248,29.2871 54,29.2871ZM46.1016,36.8877C45.8329,36.8877 45.5666,36.9411 45.3184,37.0439C45.0701,37.1468 44.8443,37.2973 44.6543,37.4873C44.4644,37.6773 44.3137,37.9032 44.2109,38.1514C44.1082,38.3994 44.0557,38.6652 44.0557,38.9336C44.0557,39.2022 44.1082,39.4686 44.2109,39.7168C44.3138,39.965 44.4643,40.1909 44.6543,40.3809C44.8443,40.5708 45.0701,40.7214 45.3184,40.8242C45.5666,40.927 45.8329,40.9805 46.1016,40.9805C46.37,40.9804 46.6358,40.9269 46.8838,40.8242C47.132,40.7214 47.3579,40.5708 47.5479,40.3809C47.7378,40.1909 47.8884,39.965 47.9912,39.7168C48.094,39.4686 48.1475,39.2023 48.1475,38.9336C48.1474,38.6651 48.0939,38.3994 47.9912,38.1514C47.8884,37.9031 47.7378,37.6773 47.5479,37.4873C47.3579,37.2973 47.132,37.1468 46.8838,37.0439C46.6357,36.9412 46.37,36.8877 46.1016,36.8877ZM61.8984,36.8877C61.3559,36.8878 60.8358,37.1037 60.4521,37.4873C60.0685,37.8709 59.8526,38.3911 59.8525,38.9336C59.8525,39.4762 60.0684,39.9972 60.4521,40.3809C60.8358,40.7644 61.356,40.9804 61.8984,40.9805C62.4411,40.9805 62.962,40.7646 63.3457,40.3809C63.7294,39.9972 63.9443,39.4762 63.9443,38.9336C63.9442,38.3912 63.7292,37.8709 63.3457,37.4873C62.962,37.1036 62.4411,36.8877 61.8984,36.8877Z" />
    <!-- Left Antenna -->
    <path stroke="#000000" stroke-width="2.48" stroke-linecap="round" d="M45.94,31.4444L43.2492,26.782" />
    <!-- Right Antenna -->
    <path stroke="#000000" stroke-width="2.48" stroke-linecap="round" d="M62.06,31.4444L64.7508,26.782" />
    <!-- Camera Lens Outer Ring -->
    <path fill="#000000" d="M67.004,55.86C67.004,52.4111 65.6341,49.1033 63.1954,46.6646C60.7566,44.2259 57.4489,42.856 54,42.856C50.5511,42.856 47.2433,44.2259 44.8046,46.6646C42.3659,49.1033 40.996,52.4111 40.996,55.86C40.996,59.3088 42.366,62.6166 44.8046,65.0554C47.2433,67.4941 50.5511,68.864 54,68.864V70.864C50.0207,70.864 46.2044,69.2832 43.3906,66.4694C40.5768,63.6556 38.996,59.8393 38.996,55.86C38.996,51.8807 40.5768,48.0643 43.3906,45.2506C46.2044,42.4368 50.0207,40.856 54,40.856C57.9793,40.856 61.7956,42.4368 64.6094,45.2506C67.4232,48.0643 69.004,51.8807 69.004,55.86C69.004,59.8393 67.4233,63.6556 64.6094,66.4694C61.7956,69.2833 57.9793,70.864 54,70.864V68.864C57.4489,68.864 60.7566,67.4941 63.1954,65.0554C65.6341,62.6166 67.004,59.3089 67.004,55.86Z" />
    <!-- Camera Lens Inner Circle -->
    <path fill="#000000" d="M43.088,55.86C43.088,52.966 44.2377,50.1904 46.2841,48.1441C48.3305,46.0977 51.106,44.948 54,44.948C56.8941,44.948 59.6696,46.0977 61.716,48.1441C63.7624,50.1904 64.912,52.966 64.912,55.86C64.912,58.754 63.7624,61.5295 61.716,63.5759C59.6696,65.6223 56.8941,66.772 54,66.772C51.106,66.772 48.3305,65.6223 46.2841,63.5759C44.2377,61.5295 43.088,58.754 43.088,55.86Z" />
</svg>